<svg id="svg" version="1.1" width="434" height="512" xmlns="http://www.w3.org/2000/svg"><path d="M236.250 75.134 C 234.565 76.841,234.668 82.080,236.435 84.604 C 237.315 85.861,239.969 87.122,243.300 87.868 C 250.711 89.526,253.540 92.616,253.333 98.825 C 252.640 119.540,250.901 149.668,250.089 155.000 C 247.698 170.712,246.947 178.800,246.004 199.000 C 245.452 210.825,244.519 223.650,243.930 227.500 C 243.341 231.350,242.649 235.943,242.392 237.707 C 242.121 239.573,240.839 241.768,239.328 242.957 C 237.005 244.784,235.311 245.000,223.299 245.000 C 215.912 245.000,209.017 244.544,207.975 243.987 C 205.090 242.442,197.905 225.812,188.481 198.865 C 187.204 195.215,185.681 191.390,185.096 190.365 C 184.511 189.339,183.162 186.025,182.100 183.000 C 181.037 179.975,178.731 173.675,176.976 169.000 C 175.221 164.325,172.525 157.125,170.985 153.000 C 169.445 148.875,167.050 142.575,165.663 139.000 C 164.277 135.425,161.715 128.675,159.971 124.000 C 158.226 119.325,155.688 112.575,154.329 109.000 C 148.923 94.776,145.817 86.284,144.391 81.829 C 142.108 74.698,141.648 74.519,129.225 75.944 C 123.326 76.620,111.165 77.708,102.199 78.360 C 85.077 79.607,83.395 80.191,84.936 84.356 C 85.399 85.608,87.520 87.003,90.454 87.984 C 95.969 89.830,98.020 92.144,97.950 96.441 C 97.888 100.169,94.877 113.174,92.031 122.000 C 90.878 125.575,88.989 131.425,87.833 135.000 C 86.676 138.575,84.930 144.425,83.953 148.000 C 82.976 151.575,81.514 156.525,80.705 159.000 C 79.187 163.639,75.251 177.325,72.652 187.000 C 71.840 190.025,70.499 194.525,69.672 197.000 C 65.534 209.397,63.010 217.887,62.389 221.500 C 62.011 223.700,60.644 228.323,59.351 231.773 C 58.058 235.223,57.000 239.150,57.000 240.500 C 57.000 241.850,55.930 245.796,54.623 249.269 C 53.316 252.743,51.911 257.566,51.502 259.987 C 51.093 262.408,49.897 266.889,48.844 269.944 C 47.791 273.000,46.303 278.496,45.537 282.159 C 44.772 285.821,43.496 290.096,42.703 291.659 C 41.909 293.221,40.933 296.739,40.535 299.477 C 40.136 302.214,38.934 306.170,37.863 308.268 C 36.793 310.367,35.465 314.652,34.914 317.792 C 34.362 320.931,33.069 325.525,32.040 328.000 C 31.012 330.475,29.645 335.406,29.003 338.958 C 28.362 342.509,27.235 346.579,26.499 348.002 C 25.763 349.425,24.424 353.433,23.523 356.910 C 20.951 366.838,18.030 373.891,15.066 377.332 C 8.355 385.123,10.069 386.316,27.222 385.793 C 41.399 385.361,46.683 383.987,45.369 381.072 C 43.648 377.256,43.853 370.736,45.869 365.203 C 47.012 362.066,48.604 356.800,49.408 353.500 C 51.258 345.909,54.680 333.842,56.641 328.000 C 57.471 325.525,58.727 321.025,59.431 318.000 C 60.647 312.779,63.633 302.388,68.054 288.000 C 69.152 284.425,70.899 278.350,71.936 274.500 C 75.608 260.869,77.147 255.409,79.547 247.500 C 80.882 243.100,82.543 237.475,83.237 235.000 C 84.934 228.952,88.757 227.009,99.000 226.988 C 103.125 226.980,111.422 226.096,117.438 225.025 C 123.454 223.953,133.842 222.772,140.522 222.401 C 152.132 221.756,152.756 221.822,154.683 223.891 C 155.793 225.081,157.259 227.923,157.943 230.205 C 158.627 232.488,159.780 235.288,160.506 236.428 C 161.231 237.567,162.824 242.250,164.045 246.834 C 166.262 255.160,166.263 255.171,164.285 257.834 C 163.196 259.300,161.005 261.175,159.416 262.000 C 147.632 268.118,135.000 279.138,135.000 283.301 C 135.000 284.785,135.170 286.000,135.378 286.000 C 136.335 286.000,144.463 282.376,154.613 277.423 C 160.725 274.440,166.060 272.000,166.468 272.000 C 166.876 272.000,169.352 270.924,171.970 269.609 C 174.588 268.294,178.253 266.922,180.115 266.560 C 181.977 266.198,186.650 264.815,190.500 263.487 C 202.076 259.494,232.273 256.992,246.500 258.847 C 250.900 259.420,259.225 260.344,265.000 260.900 C 270.775 261.455,278.158 262.830,281.407 263.955 C 284.655 265.080,288.381 266.000,289.687 266.000 C 290.992 266.000,294.634 267.065,297.780 268.367 C 300.926 269.669,305.460 271.032,307.855 271.396 C 310.250 271.760,313.625 272.812,315.355 273.735 C 320.448 276.453,329.369 279.990,331.143 279.995 C 333.275 280.001,334.171 277.575,333.083 274.741 C 330.949 269.187,323.892 264.264,305.300 255.359 C 296.951 251.360,292.769 248.788,292.050 247.211 C 290.895 244.675,290.742 204.135,291.872 200.095 C 292.243 198.772,293.253 197.243,294.118 196.697 C 297.337 194.667,300.416 196.857,306.000 205.149 C 309.025 209.642,313.750 216.579,316.500 220.565 C 321.597 227.953,323.764 231.040,337.043 249.828 C 341.191 255.698,348.143 265.675,352.491 272.000 C 356.838 278.325,362.783 286.875,365.701 291.000 C 373.656 302.245,374.138 303.306,372.904 306.846 C 371.967 309.533,361.536 318.546,354.539 322.715 C 350.641 325.037,346.642 324.212,340.931 319.908 C 337.944 317.657,333.161 314.302,330.302 312.453 C 322.835 307.624,301.356 297.497,295.599 296.092 C 292.903 295.434,289.528 294.294,288.099 293.559 C 286.670 292.824,279.875 290.830,273.000 289.128 C 252.033 283.938,226.556 283.849,201.500 288.880 C 173.654 294.471,165.645 297.784,141.000 313.904 C 125.530 324.023,116.758 332.774,106.610 348.213 C 103.154 353.470,101.891 356.211,97.718 367.500 C 93.637 378.545,91.559 403.666,94.038 412.007 C 94.609 413.928,95.487 417.582,95.989 420.127 C 97.886 429.745,108.529 448.757,118.787 460.849 C 123.093 465.926,140.490 480.527,146.636 484.222 C 148.211 485.169,152.203 487.644,155.507 489.722 C 166.157 496.420,187.199 504.014,200.303 505.888 C 208.135 507.008,214.000 509.208,214.000 511.026 C 214.000 511.629,222.583 512.000,236.559 512.000 C 250.653 512.000,258.896 511.641,258.527 511.044 C 257.447 509.297,262.616 506.974,270.779 505.539 C 275.213 504.759,280.660 503.194,282.881 502.061 C 285.103 500.927,287.501 499.990,288.210 499.978 C 288.920 499.967,296.093 497.108,304.151 493.626 C 332.040 481.574,352.674 464.891,364.519 444.817 C 367.986 438.941,371.142 433.091,371.532 431.817 C 371.922 430.542,373.296 426.963,374.586 423.862 C 376.395 419.512,377.089 415.423,377.624 405.964 C 378.259 394.730,378.162 393.592,376.467 392.352 C 375.009 391.286,368.209 391.000,344.356 391.000 C 311.177 391.000,309.000 391.315,309.000 396.115 C 309.000 399.172,308.341 398.927,322.189 401.012 C 329.613 402.130,336.814 404.866,338.879 407.354 C 340.465 409.265,340.064 411.835,336.671 421.500 C 330.065 440.322,317.258 456.206,299.551 467.540 C 286.307 476.018,280.955 478.543,268.636 482.128 C 257.726 485.303,257.105 485.368,238.000 485.317 C 219.647 485.269,218.042 485.111,210.719 482.633 C 206.440 481.185,202.115 480.000,201.109 480.000 C 194.488 480.000,170.096 464.838,158.920 453.776 C 148.536 443.497,140.310 427.674,136.372 410.403 L 133.838 399.290 136.349 386.395 C 137.730 379.303,140.012 371.025,141.420 368.000 C 142.828 364.975,143.985 361.995,143.990 361.378 C 144.005 359.699,153.141 346.140,157.721 341.000 C 164.317 333.599,191.755 316.048,196.790 316.010 C 197.499 316.004,199.968 315.037,202.276 313.859 C 218.649 305.507,264.588 307.691,283.500 317.722 C 285.150 318.597,288.300 320.205,290.500 321.296 C 294.554 323.305,302.887 328.638,308.773 332.990 C 311.513 335.016,312.000 336.006,312.000 339.553 C 312.000 342.212,311.275 344.652,310.006 346.265 C 307.406 349.571,306.979 353.309,309.150 353.763 C 310.057 353.953,317.932 350.661,326.650 346.449 C 362.111 329.312,366.725 327.102,372.000 324.721 C 375.025 323.356,378.625 321.913,380.000 321.515 C 381.375 321.117,383.481 320.174,384.681 319.418 C 385.881 318.662,389.031 317.181,391.681 316.127 C 394.331 315.072,400.325 312.553,405.000 310.529 C 409.675 308.505,415.278 306.196,417.450 305.398 C 421.519 303.904,425.000 301.339,425.000 299.836 C 425.000 299.366,422.805 297.631,420.123 295.981 C 415.685 293.250,405.911 282.734,395.490 269.478 C 393.284 266.672,388.508 261.029,384.875 256.938 C 372.764 243.296,362.636 231.423,347.000 212.536 C 338.475 202.239,327.113 188.650,321.750 182.339 C 311.012 169.703,310.127 167.314,314.452 162.646 C 315.801 161.191,317.340 160.000,317.872 160.000 C 318.404 160.000,321.238 157.834,324.169 155.187 C 329.801 150.102,340.664 141.627,358.000 128.794 C 363.775 124.519,371.650 118.644,375.500 115.737 C 379.350 112.831,388.997 105.739,396.937 99.977 C 404.878 94.214,412.971 87.997,414.923 86.159 C 418.337 82.945,418.399 82.765,416.545 81.409 C 415.012 80.288,409.633 80.000,390.243 80.000 C 375.353 80.000,365.116 80.403,363.934 81.035 C 361.359 82.414,361.503 84.677,364.474 89.500 C 365.829 91.700,366.952 94.322,366.969 95.327 C 367.003 97.303,363.305 101.152,357.895 104.773 C 356.028 106.023,349.770 110.523,343.990 114.773 C 338.209 119.023,332.359 123.295,330.990 124.267 C 329.620 125.238,325.125 128.495,321.000 131.503 C 306.162 142.323,301.443 145.234,297.959 145.717 C 291.775 146.573,291.543 145.684,291.165 119.603 C 290.809 95.029,291.296 91.193,295.390 86.295 C 298.321 82.788,299.225 79.933,298.016 78.000 C 296.933 76.268,285.574 75.299,256.000 74.418 C 241.799 73.995,237.210 74.161,236.250 75.134 M124.800 140.000 C 125.873 143.025,127.232 146.850,127.821 148.500 C 130.911 157.150,136.440 174.634,140.706 189.241 C 144.675 202.831,144.904 202.715,108.500 205.553 C 98.831 206.306,96.447 204.980,96.652 198.962 C 96.841 193.373,99.537 181.835,101.902 176.489 C 102.889 174.258,104.031 170.650,104.439 168.472 C 104.848 166.294,106.200 162.007,107.444 158.944 C 108.689 155.882,110.034 151.632,110.434 149.500 C 111.380 144.456,116.477 134.396,118.735 133.115 C 121.119 131.762,122.393 133.209,124.800 140.000 " stroke="none" fill="undefined" fill-rule="evenodd"/></svg>